# Blender v2.78 (sub 0) OBJ File: 'Crystals.blend'
# www.blender.org
mtllib Crystal_v3.mtl
o Cylinder.002_Cylinder.004
v 0.000000 -2.000000 -0.600000
v 0.519615 -2.000000 -0.300000
v 0.519615 -2.000000 0.300000
v -0.000000 -2.000000 0.600000
v -0.519615 -2.000000 0.300000
v -0.519615 -2.000000 -0.300000
v 0.519615 -0.243021 0.300000
v -0.000000 -0.929750 0.600000
v -0.519615 0.105070 0.300000
v -0.519615 1.295574 -0.114919
v -0.259026 1.491800 -0.213729
v 0.142064 1.525324 -0.272235
v -0.519615 1.150973 -0.300000
v -0.519615 1.304181 -0.259908
v 0.000000 0.447077 -0.600000
v 0.248404 1.206682 -0.456584
v 0.078272 1.513948 -0.338262
v -0.270881 1.486342 -0.267673
v 0.519615 0.774462 -0.300000
v 0.519615 0.865985 -0.086514
v 0.392797 1.156650 -0.373219
v 0.349519 1.355996 -0.237438
vn 0.0000 -1.0000 0.0000
vn -0.5000 0.0000 0.8660
vn 0.5000 0.0000 0.8660
vn -0.5892 0.8066 0.0479
vn -0.2108 0.2475 -0.9457
vn 0.9486 0.2909 -0.1247
vn 0.1096 0.3271 0.9386
vn 0.5525 0.5478 -0.6282
vn -0.0946 0.9923 -0.0796
vn -1.0000 0.0000 0.0000
vn -0.5000 0.0000 -0.8660
vn 1.0000 0.0000 0.0000
vn 0.5000 0.0000 -0.8660
usemtl None
s off
f 1//1 2//1 3//1 4//1 5//1 6//1
f 4//2 8//2 9//2 5//2
f 3//3 7//3 8//3 4//3
f 18//4 14//4 10//4 11//4
f 17//5 16//5 14//5 18//5
f 22//6 20//6 19//6 21//6
f 22//7 10//7 20//7
f 22//8 16//8 17//8 12//8
f 12//9 17//9 18//9 11//9
f 5//10 9//10 13//10 6//10
f 6//11 13//11 15//11 1//11
f 16//8 22//8 21//8
f 10//7 22//7 12//7 11//7
f 2//12 19//12 7//12 3//12
f 1//13 15//13 19//13 2//13
f 20//7 10//7 9//7 7//7
f 13//10 10//10 14//10
f 14//5 16//5 15//5 13//5
f 19//13 15//13 16//13 21//13
f 7//7 9//7 8//7
f 7//12 19//12 20//12
f 13//10 9//10 10//10
